<svg xmlns="http://www.w3.org/2000/svg" width="1303.322" height="1553.087" viewBox="0 0 1303.322 1553.087"><defs><style>.a{opacity:0.5;}.b{opacity:0.1;}.c{fill:#fff;}.d{opacity:0.25;}</style></defs><g class="a" transform="translate(-4295.882 -2426.408)"><g class="b" transform="translate(4436.527 2489.986)"><path class="c" d="M136.129,12.412C112.288,9.006,87.312,6.735,63.471,5.6L61.2,54.418q34.059,2.271,68.118,6.812Z" transform="translate(324.932 -5.6)"/><path class="c" d="M116.2,150.812l45.412,15.894a695.942,695.942,0,0,0,20.435-69.253L135.5,86.1c-5.677,21.57-12.488,43.141-19.3,64.712" transform="translate(894.346 827.813)"/><path class="c" d="M55.1,181.318h73.794L126.624,132.5H57.371Z" transform="translate(261.779 1308.192)"/><path class="c" d="M76.137,509.5l44.277-26.112c-78.8-132.951-44.5-303.938,79.471-396.219L170.367,46.3C24.992,153.8-15.684,353.749,76.137,509.5" transform="translate(-27.188 415.766)"/></g><g class="d" transform="translate(4295.882 2426.408)"><path class="c" d="M21.471,72.659H19.2l43.141,72.659a1.135,1.135,0,0,1,1.135-1.135A769.739,769.739,0,0,1,201.983,78.335L173.6,0A888.944,888.944,0,0,0,21.471,72.659" transform="translate(30.753)"/><path class="c" d="M195.13,199.683a806.235,806.235,0,0,0,31.789-78.336L148.583,94.1c-7.947,23.841-18.165,47.682-28.383,70.388Z" transform="translate(1076.403 974.216)"/><path class="c" d="M180.283,6.2A812.879,812.879,0,0,0,36.1,42.53L53.129,89.077A702.748,702.748,0,0,1,187.094,55.018Z" transform="translate(205.718 64.189)"/><path class="c" d="M180.259,13.342A718.646,718.646,0,0,0,49.7,19.019L62.188,105.3a543.811,543.811,0,0,1,113.53-4.541Z" transform="translate(346.518 129.706)"/><path class="c" d="M141.765,25.588,79.323,13.1,65.7,99.383l55.63,11.353Z" transform="translate(512.166 135.624)"/><path class="c" d="M205.435,91.188,119.153,78.7A438.3,438.3,0,0,1,107.8,134.33L192.947,155.9a649.3,649.3,0,0,0,12.488-64.712" transform="translate(948.026 814.778)"/><path class="c" d="M105.118,220.712a623.3,623.3,0,0,0,57.9-23.841L126.688,117.4,75.6,138.97Z" transform="translate(614.661 1215.438)"/><path class="c" d="M61.347,211.083l57.9-65.847C105.624,132.747,92,119.124,79.512,105.5L14.8,163.4a462.054,462.054,0,0,0,46.547,47.683" transform="translate(-14.8 1092.238)"/><path class="c" d="M316.495,150.318A549.486,549.486,0,0,0,80.353,24.3L69,73.118a504.072,504.072,0,0,1,214.571,113.53Z" transform="translate(546.331 251.578)"/><path class="c" d="M90.8,72.659a465.487,465.487,0,0,1,59.036,79.471A506.343,506.343,0,0,1,221.359,386l49.953-2.271a549.482,549.482,0,0,0-78.335-257.712A561.972,561.972,0,0,0,128.265,38.6Z" transform="translate(772.026 399.625)"/><path class="c" d="M151.753,129.029a423.484,423.484,0,0,0,4.541-53.359L106.341,73.4a338.281,338.281,0,0,1-4.541,47.682Z" transform="translate(885.908 759.908)"/><path class="c" d="M114.018,319.23A542.672,542.672,0,0,0,284.312,111.471L240.036,89.9A519.973,519.973,0,0,1,84.5,279.495Z" transform="translate(706.802 930.734)"/><path class="c" d="M97.535,177.118a403.037,403.037,0,0,0,48.818-26.112L120.241,109,77.1,131.706Z" transform="translate(630.19 1128.474)"/><path class="c" d="M62.771,191.035a590.355,590.355,0,0,0,157.806-31.788L203.547,112.7A532.445,532.445,0,0,1,60.5,141.083Z" transform="translate(458.331 1166.78)"/><path class="c" d="M51.2,164.653l54.494,5.677,2.27-49.953A338.354,338.354,0,0,1,59.147,114.7Z" transform="translate(362.048 1187.487)"/><path class="c" d="M182.224,213.447l12.488-48.818A484.765,484.765,0,0,1,59.612,109L33.5,152.141a586.931,586.931,0,0,0,148.724,61.306" transform="translate(178.8 1128.474)"/><path class="c" d="M67.806,175.324l29.518-40.871c-13.624-9.082-26.112-20.435-38.6-30.653L25.8,140.13l42.006,35.194" transform="translate(99.082 1074.639)"/><path class="c" d="M52.324,167.788,89.788,133.73A457.56,457.56,0,0,1,60.271,97.4L19.4,126.918l32.924,40.871" transform="translate(32.824 1008.378)"/><path class="c" d="M137.765,40.5,81,104.077l27.247,27.247,62.441-57.9A450.716,450.716,0,0,0,137.765,40.5" transform="translate(670.566 419.296)"/><path class="c" d="M177.247,69.1,92.1,73.641a206.6,206.6,0,0,1,0,37.465l85.147,4.541a318.937,318.937,0,0,0,0-46.547" transform="translate(785.485 715.389)"/><path class="c" d="M121.012,191.595l37.465-24.977L107.388,98.5,76.735,117.8H75.6l44.277,73.795h1.135" transform="translate(614.661 1019.769)"/><path class="c" d="M48.2,188.012l45.412,7.947L106.1,111.947,69.771,104Z" transform="translate(330.989 1076.708)"/><path class="c" d="M61.559,184.624l56.765-63.577L91.077,93.8,27.5,151.7a466.6,466.6,0,0,0,34.059,32.924" transform="translate(116.682 971.109)"/><path class="c" d="M89.541,75.9,46.4,102.012h1.135a40.867,40.867,0,0,0,7.947,11.353L96.353,83.847,90.677,75.9H89.541" transform="translate(312.353 785.791)"/></g></g></svg>