<svg width="308" height="120" viewBox="0 0 308 120" fill="none" xmlns="http://www.w3.org/2000/svg">
<path d="M122.6 100.8C121.8 100.8 121.2 101.4 121.2 102.2C121.2 103 121.8 103.6 122.6 103.6H155.4C156.2 103.6 156.8 103 156.8 102.2C156.8 101.4 156.2 100.8 155.4 100.8H122.6Z" fill="#B38E61"/>
<path d="M3.9999 5.6L3.8999 5.7L7.1999 11.2L7.2999 11.1C10.6999 9.1 14.1999 7.4 17.8999 6L15.7999 0C11.6999 1.5 7.7999 3.4 3.9999 5.6Z" fill="white"/>
<path d="M98.2 90.6C99.1 88.6 100 86.6 100.7 84.6L94.6 82.5C93.9 84.4 93.2 86.2 92.4 88L98.2 90.6Z" fill="white"/>
<path d="M29.7999 5.5C25.9999 6 22.3 7 18.7 8.2L20 11.7C23.4 10.5 26.7999 9.6 30.2999 9.1L29.7999 5.5Z" fill="white"/>
<path d="M46.5 5.5C44.6 5.2 42.8 5 40.9 5L40.7 8.8C42.5 8.9 44.2 9.1 45.9 9.3L46.5 5.5Z" fill="#75597E"/>
<path d="M88.9 80.4L92.5 81.7C93.1 80 93.7 78.2 94.1 76.4L90.4 75.5C90 77.1 89.5 78.8 88.9 80.4Z" fill="#75597E"/>
<path d="M35.3999 119.9C37.2999 120 39.1999 120 41.0999 119.9L40.8999 116.1C39.0999 116.2 37.2999 116.2 35.5999 116.1L35.3999 119.9Z" fill="#75597E"/>
<path d="M40.7 11C37.3 10.8 33.9 11 30.5 11.5L31.5 18.2C34.4 17.8 37.4 17.6 40.3 17.8L40.7 11Z" fill="white"/>
<path d="M50.5001 12.5C48.9001 12.1 47.3001 11.8 45.6001 11.5L44.6001 18.2C46.0001 18.4 47.4001 18.7 48.8001 19L50.5001 12.5Z" fill="white"/>
<path d="M89.1 70L82.4 69C82.2 70.4 81.9 71.9 81.5 73.3L88 74.9C88.5 73.3 88.9 71.6 89.1 70Z" fill="white"/>
<path d="M55.6 110.9C57.1 110.4 58.6 109.7 60.1 109L57.2001 102.9C55.9001 103.5 54.6 104.1 53.3 104.5L55.6 110.9Z" fill="white"/>
<path d="M3.6 100.6L8.1 95.6C7 94.6 6 93.6 5 92.5L0 97C1.1 98.2 2.3 99.4 3.6 100.6Z" fill="white"/>
<path d="M66.6 30.9998C61.4 26.2998 55.2 22.9998 48.4 21.2998L47.5 24.9998C53.7 26.4998 59.4 29.5998 64.1 33.7998L66.6 30.9998Z" fill="white"/>
<path d="M66.6 36.3998C68.3 38.2998 69.9 40.3998 71.2 42.4998C74.5 47.9998 76.4 54.1998 76.7 60.4998L80.6 60.2998C80.3 53.2998 78.2 46.4998 74.6 40.4998C73.2 38.0998 71.5 35.7998 69.6 33.7998L66.6 36.3998Z" fill="white"/>
<path d="M80.1 68.5998C80.3 67.2998 80.4 65.8998 80.5 64.4998L76.6 64.2998C76.5 65.4998 76.4 66.7998 76.2 67.9998L80.1 68.5998Z" fill="white"/>
<path d="M63.4 96.4998C69.1 92.2998 73.6 86.7998 76.5 80.3998L73 78.7998C70.3 84.5998 66.2 89.5998 61 93.3998L63.4 96.4998Z" fill="white"/>
<path d="M56.2 100.8C57.5 100.2 58.7 99.5 59.9 98.8L57.9 95.5C56.8 96.2 55.7 96.8 54.5 97.3L56.2 100.8Z" fill="white"/>
<path d="M40.3001 104.8C44.4001 104.6 48.5001 103.8 52.4001 102.4L51.1001 98.7998C47.5001 100.1 43.8001 100.8 40.1001 101L40.3001 104.8Z" fill="white"/>
<path d="M32 104.4C33.4 104.6 34.8 104.7 36.2 104.8L36.4 100.9C35.1 100.8 33.9 100.7 32.6 100.5L32 104.4Z" fill="white"/>
<path d="M27.9 103.6L28.8 99.9001C25.1 99.0001 21.6 97.5001 18.3 95.6001L16.3 98.9001C20 101 23.9 102.6 27.9 103.6Z" fill="white"/>
<path d="M12.9001 96.5L15.2001 93.4C14.2001 92.6 13.2001 91.8 12.2001 91L9.6001 93.9C10.7001 94.7 11.8001 95.6 12.9001 96.5Z" fill="white"/>
<path d="M6.6001 90.7999L9.5001 88.1999C8.7001 87.2999 7.9001 86.3999 7.2001 85.3999L4.1001 87.6999C4.9001 88.6999 5.7001 89.7999 6.6001 90.7999Z" fill="white"/>
<path d="M62.5 35.5L58 40.4C58.7 41.1 59.4 41.8 60.1 42.5L65 38C64.2 37.2 63.4 36.3 62.5 35.5Z" fill="white"/>
<path d="M74.4 60.6001L67.8 60.9001C67.8 61.9001 67.8 62.8001 67.8 63.8001L74.4 64.1001C74.4 63.0001 74.4 61.8001 74.4 60.6001Z" fill="white"/>
<path d="M56.8 93.4998C57.8 92.8998 58.7 92.2998 59.6 91.5998L55.7001 86.2998C55.0001 86.7998 54.2001 87.3998 53.4001 87.7998L53.3 87.8998L56.7001 93.5998C56.7001 93.5998 56.8 93.4998 56.8 93.4998Z" fill="white"/>
<path d="M29.3 97.6002C30.4 97.9002 31.6 98.1002 32.8 98.3002L33.8 91.8002C32.8 91.7002 31.9 91.5002 31 91.2002L29.3 97.6002Z" fill="white"/>
<path d="M13.8 89.2002L18.2 84.3002C17.5 83.6002 16.8 82.9002 16.1 82.2002L11.2 86.7002C12 87.6002 12.9 88.4002 13.8 89.2002Z" fill="white"/>
<path d="M14.6999 76.3L18.0999 74.3C11.9999 64 14.6999 50.8 24.2999 43.7L21.8999 40.5C10.6999 48.9 7.59994 64.3 14.6999 76.3Z" fill="#75597E"/>
<path d="M31.1 66.5L27.7 68.5L27.7999 68.6C27.9999 68.9 28.2 69.2 28.4 69.5L31.5 67.2C31.4 67 31.2 66.8 31.1 66.6C31.1 66.6 31.1 66.5 31.1 66.5Z" fill="white"/>
<path d="M130.7 72.9001H129.1L123 83.6001V72.9001H121.6V86.5001H122.7L126.1 80.7001L130.1 86.5001H131.8L126.9 79.4001L130.7 72.9001ZM141.3 75.8001L144 82.0001H138.5L141.3 75.8001ZM141.3 72.6001L135.1 86.5001H136.6L138 83.3001H144.5L145.9 86.5001H147.4L141.3 72.6001ZM164.3 72.6001L157.9 84.0001L151.6 72.6001H151.5V86.5001H152.9V77.5001L157.9 86.6001H158L162.9 77.5001V86.5001H164.3V72.6001ZM174.6 75.8001L177.3 82.1001H171.9L174.6 75.8001ZM174.6 72.6001L168.4 86.5001H169.9L171.3 83.3001H177.8L179.2 86.5001H180.7L174.6 72.6001ZM188.9 72.9001H184.8V86.5001H186.2V81.1001H189.3L192.7 86.5001H194.4L190.9 80.9001C192.7 80.5001 193.9 78.8001 193.8 77.0001C193.7 74.3001 191.6 72.9001 188.9 72.9001ZM188.8 74.1001C190.9 74.1001 192.3 75.1001 192.3 77.0001C192.3 78.9001 190.9 79.9001 188.8 79.9001H186.2V74.2001L188.8 74.1001ZM203.9 75.8001L206.6 82.1001H201.2L203.9 75.8001ZM203.9 72.6001L197.7 86.5001H199.2L200.6 83.3001H207.1L208.5 86.5001H210L203.9 72.6001ZM222.9 72.9001H213.9V74.2001H220.7L213.5 86.5001V86.6001H223.1V85.3001H215.8L222.9 72.9001ZM235.6 72.9001H227.4V86.5001H235.8V85.2001H228.8V80.2001H234.8V78.9001H228.8V74.1001H235.6V72.9001V72.9001ZM250.3 72.9001H248.9V83.2001L240.1 72.7001H240V86.6001H241.4V76.2001L250.2 86.7001H250.3V72.9001ZM264.1 72.9001H255.9V86.5001H264.3V85.2001H257.3V80.2001H263.3V78.9001H257.3V74.1001H264.1V72.9001ZM277.7 72.9001H276L269.9 83.7001V72.9001H268.5V86.5001H269.6L273 80.7001L277 86.5001H278.7L273.8 79.4001L277.7 72.9001ZM288.2 75.8001L290.9 82.1001H285.4L288.2 75.8001ZM288.2 72.6001L282 86.5001H283.5L284.9 83.3001H291.4L292.8 86.5001H294.3L288.2 72.6001ZM302.5 72.9001H298.4V86.5001H299.8V81.1001H302.9L306.3 86.5001H308L304.5 80.9001C306.3 80.5001 307.5 78.8001 307.4 77.0001C307.3 74.3001 305.3 72.9001 302.5 72.9001ZM302.4 74.1001C304.5 74.1001 305.9 75.1001 305.9 77.0001C305.9 78.9001 304.5 79.9001 302.4 79.9001H299.8V74.2001L302.4 74.1001Z" fill="white"/>
<path d="M124.7 45.3002H121.8V62.2002H132.3V59.6002H124.6V45.3002H124.7ZM140.3 45.3002H137.4V62.2002H140.3V45.3002ZM151.9 45.0002C148.4 45.0002 146.2 47.0002 146.2 50.0002C146.2 52.5002 147.6 54.1002 151.8 55.0002C154.5 55.6002 155.4 56.2002 155.4 57.5002C155.4 59.0002 154.1 59.9002 152.2 59.9002C150.4 59.9002 148.6 59.2002 147.3 57.9002L145.7 60.3002C147.5 61.8002 149.7 62.6002 152 62.5002C155.8 62.5002 158.2 60.4002 158.2 57.2002C158.2 54.6002 156.8 53.1002 152.5 52.2002C149.8 51.6002 149 51.1002 149 49.9002C149 48.4002 150.1 47.6002 151.8 47.6002C153.3 47.6002 154.8 48.1002 156 49.1002L157.5 46.7002C156 45.6002 154 44.9002 151.9 45.0002ZM174.5 45.3002H162.7V47.8002H170.1L162.4 62.1002V62.2002H174.8V59.6002H166.9L174.5 45.3002ZM193.5 45.3002H179.2V47.8002H184.9V62.2002H187.8V47.8002H193.5V45.3002ZM217.3 45.3002H207V62.2002H209.9V55.1002H216.2V52.6002H209.9V47.9002H217.4L217.3 45.3002ZM233.1 45.3002H222.4V62.2002H233.3V59.6002H225.3V54.9002H232.1V52.4002H225.3V48.0002H233.1V45.3002ZM245.1 45.3002H239V62.2002H241.9V56.0002H244.8L248.6 62.2002H252L247.9 55.5002C249.9 54.8002 251.2 52.8002 251.2 50.6002C251.1 47.2002 248.4 45.3002 245.1 45.3002ZM244.8 47.8002C246.8 47.8002 248.1 48.8002 248.1 50.7002C248.1 52.6002 246.8 53.5002 244.8 53.5002H241.8V47.8002H244.8ZM267.8 45.3002H257.1V62.2002H268V59.6002H260V54.9002H266.8V52.4002H260V48.0002H267.8V45.3002ZM287 45.3002H284.1V55.8002L273.8 45.0002H273.7V62.2002H276.6V51.7002L286.9 62.5002H287V45.3002ZM301.3 45.0002C296.7 44.9002 292.8 48.6002 292.7 53.2002C292.7 53.4002 292.7 53.6002 292.7 53.8002C292.5 58.4002 296.1 62.4002 300.8 62.5002C301 62.5002 301.2 62.5002 301.3 62.5002C303.6 62.6002 305.8 61.7002 307.4 59.9002L305.6 57.8002C304.5 59.1002 303 59.8002 301.3 59.8002C297.9 59.8002 295.6 57.2002 295.6 53.7002C295.6 50.1002 297.9 47.6002 301.3 47.6002C302.9 47.6002 304.5 48.3002 305.5 49.5002L307.3 47.4002C305.8 45.8002 303.6 44.9002 301.3 45.0002Z" fill="white"/>
</svg>
